HIERARCHY
ROOT Hips
{
	OFFSET -0.001795 -0.223333 0.028219
	CHANNELS 6 Xposition Yposition Zposition Zrotation Yrotation Xrotation 
	JOINT LeftUpLeg
	{
		OFFSET 0.069520 -0.091406 -0.006815
		CHANNELS 3 Zrotation Yrotation Xrotation
		JOINT LeftLeg
		{
			OFFSET 0.034277 -0.375199 -0.004496
			CHANNELS 3 Zrotation Yrotation Xrotation
			JOINT LeftFoot
			{
				OFFSET -0.013596 -0.397961 -0.043693
				CHANNELS 3 Zrotation Yrotation Xrotation
				JOINT LeftToe
				{
					OFFSET 0.026358 -0.055791 0.119288
					CHANNELS 3 Zrotation Yrotation Xrotation
					End Site
					{
						OFFSET 0.000000 0.000000 0.000000
					}
				}
			}
		}
	}
	JOINT RightUpLeg
	{
		OFFSET -0.067670 -0.090522 -0.004320
		CHANNELS 3 Zrotation Yrotation Xrotation
		JOINT RightLeg
		{
			OFFSET -0.038290 -0.382569 -0.008850
			CHANNELS 3 Zrotation Yrotation Xrotation
			JOINT RightFoot
			{
				OFFSET 0.015774 -0.398415 -0.042312
				CHANNELS 3 Zrotation Yrotation Xrotation
				JOINT RightToe
				{
					OFFSET -0.025372 -0.048144 0.123348
					CHANNELS 3 Zrotation Yrotation Xrotation
					End Site
					{
						OFFSET 0.000000 0.000000 0.000000
					}
				}
			}
		}
	}
	JOINT Spine
	{
		OFFSET -0.002533 0.108963 -0.026696
		CHANNELS 3 Zrotation Yrotation Xrotation
		JOINT Spine1
		{
			OFFSET 0.005487 0.135180 0.001092
			CHANNELS 3 Zrotation Yrotation Xrotation
			JOINT Spine2
			{
				OFFSET 0.001457 0.052922 0.025425
				CHANNELS 3 Zrotation Yrotation Xrotation
				JOINT Neck
				{
					OFFSET -0.002778 0.213870 -0.042857
					CHANNELS 3 Zrotation Yrotation Xrotation
					JOINT Head
					{
						OFFSET 0.005152 0.064970 0.051349
						CHANNELS 3 Zrotation Yrotation Xrotation
						End Site
						{
							OFFSET 0.000000 0.000000 0.000000
						}
					}
				}
				JOINT LeftShoulder
				{
					OFFSET 0.078845 0.121749 -0.034090
					CHANNELS 3 Zrotation Yrotation Xrotation
					JOINT LeftArm
					{
						OFFSET 0.090977 0.030469 -0.008868
						CHANNELS 3 Zrotation Yrotation Xrotation
						JOINT LeftForeArm
						{
							OFFSET 0.259612 -0.012772 -0.027456
							CHANNELS 3 Zrotation Yrotation Xrotation
							JOINT LeftHand
							{
								OFFSET 0.249234 0.008986 -0.001171
								CHANNELS 3 Zrotation Yrotation Xrotation
								End Site
								{
									OFFSET 0.000000 0.000000 0.000000
								}
							}
						}
					}
				}
				JOINT RightShoulder
				{
					OFFSET -0.081759 0.118833 -0.038615
					CHANNELS 3 Zrotation Yrotation Xrotation
					JOINT RightArm
					{
						OFFSET -0.096012 0.032551 -0.009143
						CHANNELS 3 Zrotation Yrotation Xrotation
						JOINT RightForeArm
						{
							OFFSET -0.253742 -0.013329 -0.021401
							CHANNELS 3 Zrotation Yrotation Xrotation
							JOINT RightHand
							{
								OFFSET -0.255298 0.007772 -0.005559
								CHANNELS 3 Zrotation Yrotation Xrotation
								End Site
								{
									OFFSET 0.000000 0.000000 0.000000
								}
							}
						}
					}
				}
			}
		}
	}
}
MOTION
Frames: 18
Frame Time: 0.050000
0.171764 0.948780 0.414872 -3.479021 -4.575994 1.172931 0.521137 0.250312 2.810329 -1.943605 0.199864 2.245938 3.494885 7.847869 1.648566 0.000000 0.000000 0.000000 2.591144 3.576129 -27.117238 5.466653 -0.092444 42.710297 -5.395237 -14.763988 6.841634 0.000000 0.000000 0.000000 6.166618 -0.107633 0.473845 -1.680843 0.795962 -10.857696 -2.757243 5.292802 21.289238 9.756379 -2.992268 -27.806148 0.000000 0.000000 0.000000 -25.717939 -15.270360 6.584498 -46.006054 -14.252845 -1.367177 15.007571 -24.643360 -2.163992 0.000000 0.000000 0.000000 28.200516 -1.121822 -1.780198 62.072672 1.319605 -7.281081 -15.785734 27.286325 -1.839733 0.000000 0.000000 0.000000 
0.172848 0.946064 0.447560 -3.865653 -2.483466 1.189887 0.772578 0.479973 5.627555 -1.659406 0.167003 1.236990 3.291214 6.997100 0.024921 0.000000 0.000000 0.000000 2.848787 3.733013 -28.619197 5.007628 -0.434602 29.128044 -5.360378 -14.788631 8.216102 0.000000 0.000000 0.000000 5.968971 -0.136284 0.737685 -0.963563 0.595523 -11.877052 -3.255178 3.748130 21.851564 9.647423 -2.952422 -28.104211 0.000000 0.000000 0.000000 -25.240464 -15.366747 6.732726 -45.620008 -15.404188 -1.023173 14.484614 -27.247401 -2.264194 0.000000 0.000000 0.000000 28.302719 -1.929454 -2.394331 62.490377 0.504340 -7.779907 -15.085089 28.003457 -1.744054 0.000000 0.000000 0.000000 
0.172561 0.940457 0.482506 -4.012964 -1.485106 1.932888 0.740206 0.674456 7.950941 -1.252063 0.139005 0.038633 3.076724 6.291128 -0.746408 0.000000 0.000000 0.000000 3.119889 3.806808 -29.178223 4.315573 -0.387086 14.327084 -4.997405 -14.465535 11.377053 0.000000 0.000000 0.000000 6.829425 -0.124787 0.289211 -1.720964 0.895663 -13.004085 -3.503728 2.913707 22.321818 9.741817 -3.015945 -28.393235 0.000000 0.000000 0.000000 -24.826879 -15.172811 6.722701 -45.992797 -16.128827 -0.837757 15.198412 -30.218738 -2.671403 0.000000 0.000000 0.000000 28.713225 -2.833584 -3.128017 62.951321 -0.335438 -8.289029 -15.049836 28.389412 -1.763996 0.000000 0.000000 0.000000 
0.170795 0.933299 0.519625 -3.960628 0.389935 2.594830 0.741662 0.764552 9.355608 -0.649778 0.050664 0.679480 2.899944 5.335200 -2.206926 0.000000 0.000000 0.000000 3.215546 3.662361 -28.929005 3.188941 -0.296408 3.826685 -4.838035 -14.181001 13.238474 0.000000 0.000000 0.000000 7.169519 -0.083023 -0.385269 -1.752269 0.956757 -14.001003 -3.975628 2.317992 23.055415 11.042903 -3.376972 -30.069935 0.000000 0.000000 0.000000 -24.761641 -16.167361 7.146620 -46.278089 -16.570826 -0.666151 15.968304 -32.191575 -3.103168 0.000000 0.000000 0.000000 30.238669 -3.244011 -3.303943 63.025745 -0.040996 -8.278767 -15.809254 28.431964 -1.839490 0.000000 0.000000 0.000000 
0.166896 0.926108 0.560281 -3.962275 2.177483 3.154020 1.203244 0.824390 11.263767 -0.048782 -0.041499 1.343506 1.986464 2.940064 -2.893007 0.000000 0.000000 0.000000 3.421201 3.596389 -29.037258 2.480269 -0.244947 1.644319 -5.200178 -14.677427 14.209417 0.000000 0.000000 0.000000 8.015907 -0.004130 -1.434185 -1.732860 0.986960 -13.331557 -4.736447 1.724329 22.235508 10.991983 -3.206766 -30.218880 0.000000 0.000000 0.000000 -25.469132 -15.880808 6.749726 -46.294691 -16.200483 -0.643297 16.026204 -34.264031 -3.401944 0.000000 0.000000 0.000000 31.385795 -3.712089 -3.561894 63.652149 -0.262078 -8.407817 -18.160044 28.953206 -2.343521 0.000000 0.000000 0.000000 
0.160566 0.921643 0.606004 -4.090495 4.548526 3.392034 2.133817 0.745168 13.032425 0.502837 -0.193073 3.442835 1.314380 0.578346 -4.293467 0.000000 0.000000 0.000000 3.556396 3.487911 -29.305634 2.329289 -0.217790 3.068485 -5.365705 -14.883171 18.083851 0.000000 0.000000 0.000000 8.172771 0.011655 -1.801108 -1.371059 0.934822 -14.301637 -4.700159 0.813089 22.759345 11.789275 -3.268096 -31.840289 0.000000 0.000000 0.000000 -26.207947 -16.015290 6.655030 -46.918299 -15.775606 -0.749255 15.627377 -36.433668 -3.537694 0.000000 0.000000 0.000000 31.692880 -5.091205 -4.312885 64.375152 -0.032558 -8.424957 -18.588620 30.029464 -2.433390 0.000000 0.000000 0.000000 
0.151754 0.921893 0.656535 -4.354645 5.437111 4.409376 3.087159 0.588148 13.456869 1.544806 -0.499919 6.561785 0.302427 0.225804 -0.747755 0.000000 0.000000 0.000000 4.232316 3.583535 -29.382059 3.003858 -0.304525 5.566227 -5.665233 -15.397305 20.801611 0.000000 0.000000 0.000000 8.136184 0.171779 -3.604020 -0.458256 0.631495 -13.355995 -4.968265 -0.213226 21.260933 11.085539 -2.971484 -31.557378 0.000000 0.000000 0.000000 -26.215558 -13.734824 5.342336 -47.661084 -14.570215 -1.128672 14.363806 -37.836460 -3.236127 0.000000 0.000000 0.000000 32.551782 -4.689305 -4.398825 63.356908 -0.295141 -8.280685 -18.783951 31.054632 -2.702726 0.000000 0.000000 0.000000 
0.141161 0.926739 0.709093 -4.393563 6.058229 5.408179 4.525995 0.285440 11.927494 1.500172 -0.818704 11.912097 -0.809154 -0.546062 2.090432 0.000000 0.000000 0.000000 5.151263 3.608882 -28.236984 3.572453 -0.410706 7.522600 -5.648302 -15.260668 20.081685 0.000000 0.000000 0.000000 8.265864 0.389133 -5.986036 -0.542505 0.651629 -12.476515 -4.164358 -0.304413 20.242086 10.440018 -2.623913 -31.335441 0.000000 0.000000 0.000000 -26.082479 -12.419031 4.397827 -48.161688 -13.268379 -1.524003 13.400803 -38.219711 -2.987744 0.000000 0.000000 0.000000 32.076395 -5.263601 -4.726772 63.470818 -0.076185 -8.052176 -17.881347 30.449997 -2.446036 0.000000 0.000000 0.000000 
0.130395 0.933017 0.760056 -4.951521 5.505357 5.771715 6.755432 -0.070632 9.080786 0.402525 -1.055194 20.149176 -2.404641 -0.917568 7.362216 0.000000 0.000000 0.000000 7.108379 3.728192 -25.789658 3.078041 -0.307369 8.744914 -4.724277 -13.649991 16.787919 0.000000 0.000000 0.000000 9.582180 0.540407 -7.134264 -0.499139 0.642545 -13.491484 -4.162197 0.332633 20.908804 9.313331 -2.151394 -30.677886 0.000000 0.000000 0.000000 -25.214492 -11.381154 3.702890 -48.566313 -11.986642 -2.102579 10.880744 -39.602475 -2.222235 0.000000 0.000000 0.000000 30.180878 -4.787282 -4.046470 63.793758 0.776148 -7.671660 -16.165511 30.427196 -2.008967 0.000000 0.000000 0.000000 
0.120916 0.937154 0.805565 -5.029166 5.049364 4.796017 8.732380 -0.294508 4.301270 -1.337834 -1.178074 32.413065 -2.259742 1.758544 12.935869 0.000000 0.000000 0.000000 8.661709 3.297365 -20.911702 2.860091 -0.266654 7.326295 -4.415620 -12.893986 13.861959 0.000000 0.000000 0.000000 9.829647 0.463282 -6.104629 -0.975709 0.808288 -14.424573 -3.263843 1.576280 21.160427 8.274810 -1.485441 -30.780394 0.000000 0.000000 0.000000 -24.768898 -11.991324 3.723011 -48.272095 -12.207362 -1.937214 10.518216 -40.719600 -2.284438 0.000000 0.000000 0.000000 29.073772 -4.541800 -3.352957 63.139151 1.504891 -7.311433 -13.796088 31.762198 -1.428756 0.000000 0.000000 0.000000 
0.113494 0.939908 0.845361 -5.239360 3.984605 3.528840 10.349824 -0.331139 -1.465242 -3.130678 -0.740769 42.817471 -0.397786 4.842228 13.601844 0.000000 0.000000 0.000000 10.047279 2.651331 -15.780736 2.559535 -0.215817 5.724757 -4.108585 -12.212894 11.695815 0.000000 0.000000 0.000000 10.439820 0.340655 -4.574167 -1.549279 0.983863 -15.296869 -2.654416 3.455624 22.213422 9.302939 -1.779307 -31.252753 0.000000 0.000000 0.000000 -24.104343 -12.068313 3.368392 -48.097882 -13.892858 -1.275447 10.099192 -42.567134 -2.381917 0.000000 0.000000 0.000000 28.630486 -4.104630 -2.486320 61.765580 3.464572 -6.402301 -11.672410 33.563530 -0.811295 0.000000 0.000000 0.000000 
0.107169 0.943004 0.880543 -4.829550 1.497886 2.582039 10.768622 -0.220130 -7.103219 -4.680202 0.524242 48.606061 2.857432 9.067612 10.658110 0.000000 0.000000 0.000000 10.294497 1.856350 -11.198091 2.313060 -0.175973 4.168898 -2.974301 -10.007115 9.871307 0.000000 0.000000 0.000000 10.229477 0.198735 -2.977471 -2.097586 1.104897 -15.729843 -1.560416 5.704921 22.597498 9.307414 -1.815460 -30.422454 0.000000 0.000000 0.000000 -24.791811 -12.305222 3.249080 -47.233469 -14.533718 -0.974917 11.171936 -44.960950 -3.073040 0.000000 0.000000 0.000000 28.934510 -3.601524 -1.894960 59.287970 5.426334 -5.440657 -10.805050 36.101197 -0.568221 0.000000 0.000000 0.000000 
0.101704 0.946369 0.912353 -4.252657 -1.669570 1.969701 10.054311 -0.138807 -12.911603 -4.459271 1.270260 50.645740 5.499981 12.859005 8.191081 0.000000 0.000000 0.000000 10.395025 1.112798 -7.309292 1.930735 -0.107390 3.730307 -1.830793 -7.487055 7.814492 0.000000 0.000000 0.000000 9.925569 0.082732 -1.663088 -2.878948 1.277930 -16.064420 -0.433237 8.382079 23.023573 9.281006 -1.640748 -30.858974 0.000000 0.000000 0.000000 -25.011011 -12.997304 3.439774 -47.086966 -15.460993 -0.591626 13.104892 -46.283552 -4.085313 0.000000 0.000000 0.000000 27.728589 -2.802249 -1.056424 58.803824 7.322188 -4.562144 -9.956850 37.930300 -0.250858 0.000000 0.000000 0.000000 
0.096722 0.948077 0.942043 -3.491836 -5.148514 1.329674 8.477853 -0.187411 -17.922724 -2.971638 1.242270 48.311846 7.201661 15.482103 7.090209 0.000000 0.000000 0.000000 10.348887 0.342911 -3.417170 0.917019 0.015664 2.948928 -0.533985 -4.309013 5.891187 0.000000 0.000000 0.000000 9.414715 -0.021586 -0.450643 -2.979528 1.226809 -15.960450 -0.040437 10.106418 23.423648 8.276573 -1.316958 -29.986218 0.000000 0.000000 0.000000 -26.392228 -12.171260 3.094098 -45.856532 -15.500624 -0.645112 13.950792 -48.010505 -4.541907 0.000000 0.000000 0.000000 27.153789 -1.291333 -0.238183 57.243309 9.102556 -3.692470 -9.350764 40.056936 -0.160175 0.000000 0.000000 0.000000 
0.092312 0.948281 0.970722 -3.060742 -8.538514 0.988245 7.702076 -0.115689 -22.326681 -1.305025 0.846737 43.010993 7.515614 15.777940 6.458696 0.000000 0.000000 0.000000 9.958294 -0.232817 -0.443697 0.588629 0.052247 2.656510 0.365438 -1.551938 3.952581 0.000000 0.000000 0.000000 9.475818 -0.121779 0.635445 -3.834123 1.407278 -16.894227 0.590060 11.883932 24.571624 8.370168 -1.340177 -30.701385 0.000000 0.000000 0.000000 -26.225393 -12.654445 3.638017 -46.230494 -15.711278 -0.738639 14.130094 -47.964452 -4.491430 0.000000 0.000000 0.000000 26.636560 -0.998976 -0.151839 56.819867 10.778422 -2.981685 -7.562585 41.146652 0.445429 0.000000 0.000000 0.000000 
0.088004 0.947648 0.999605 -2.833316 -11.968800 0.980299 7.876651 0.250155 -25.478164 -1.301141 1.010157 35.276131 6.782403 14.240158 7.462589 0.000000 0.000000 0.000000 9.839544 -0.629080 1.698068 -0.671852 0.203061 2.837686 1.824511 2.624324 2.483119 0.000000 0.000000 0.000000 9.555983 -0.187008 1.371309 -4.076263 1.398452 -16.826733 0.390915 12.921132 24.579908 7.949623 -1.254595 -30.888865 0.000000 0.000000 0.000000 -26.407017 -12.032830 3.715471 -46.654608 -15.565221 -0.927968 12.909178 -46.344918 -3.605796 0.000000 0.000000 0.000000 25.839342 -0.409443 -0.175330 56.957682 11.039233 -2.748963 -6.464322 42.507350 0.727212 0.000000 0.000000 0.000000 
0.083545 0.946030 1.029478 -2.681573 -14.776293 1.230817 7.495475 0.496736 -27.743904 -0.961959 0.678084 26.829735 5.456734 11.776494 9.882822 0.000000 0.000000 0.000000 9.517859 -0.956579 3.687487 -1.246138 0.264177 2.862087 2.428557 5.046463 1.146682 0.000000 0.000000 0.000000 9.552172 -0.185482 1.472712 -4.428141 1.442814 -16.356885 0.406085 13.488075 24.228162 7.555401 -1.179988 -31.173658 0.000000 0.000000 0.000000 -27.499385 -12.503649 4.489877 -46.579897 -14.674518 -1.343447 10.956388 -44.028028 -2.459115 0.000000 0.000000 0.000000 26.513227 -0.310041 -0.580085 56.103848 10.142396 -3.082656 -4.281137 43.219077 1.359268 0.000000 0.000000 0.000000 
0.078533 0.942476 1.061215 -2.877244 -18.404180 1.398229 7.952957 1.077205 -28.932732 -1.177872 0.481010 17.484185 4.455842 9.840879 12.712500 0.000000 0.000000 0.000000 8.882983 -1.219231 5.772209 -1.770720 0.350299 3.408623 3.335325 8.508061 -0.215936 0.000000 0.000000 0.000000 9.698129 -0.191878 1.724567 -4.336280 1.319126 -16.598168 0.248707 14.705259 24.639266 7.223183 -1.138727 -31.419953 0.000000 0.000000 0.000000 -28.234509 -12.751359 5.177051 -47.224236 -13.786297 -1.864901 8.780173 -41.204534 -1.317398 0.000000 0.000000 0.000000 26.333912 -0.287719 -0.947211 57.491099 9.193850 -3.508392 -4.475122 42.888048 1.184625 0.000000 0.000000 0.000000 
